<svg width="40" height="40" viewBox="0 0 40 40" fill="none" xmlns="http://www.w3.org/2000/svg">
  <rect width="40" height="40" rx="8" fill="url(#gradient)"/>
  
  <!-- Crown -->
  <path d="M20 10L22 14L26 12L24.5 16.5H15.5L14 12L18 14L20 10Z" fill="white" opacity="0.95"/>
  <rect x="15" y="16" width="10" height="2" rx="0.5" fill="white" opacity="0.95"/>
  <circle cx="17" cy="13.5" r="1" fill="#FCD34D"/>
  <circle cx="20" cy="11.5" r="1" fill="#FCD34D"/>
  <circle cx="23" cy="13.5" r="1" fill="#FCD34D"/>
  
  <!-- Calendar -->
  <rect x="13" y="22" width="14" height="12" rx="1.5" fill="white" opacity="0.95"/>
  <rect x="13" y="22" width="14" height="3" rx="1.5" fill="white" opacity="1"/>
  <line x1="17" y1="21" x2="17" y2="24" stroke="white" stroke-width="1.5" stroke-linecap="round" opacity="0.9"/>
  <line x1="23" y1="21" x2="23" y2="24" stroke="white" stroke-width="1.5" stroke-linecap="round" opacity="0.9"/>
  
  <!-- Calendar dots -->
  <circle cx="16" cy="28" r="0.8" fill="#EAB308"/>
  <circle cx="20" cy="28" r="0.8" fill="#EAB308"/>
  <circle cx="24" cy="28" r="0.8" fill="#EAB308"/>
  <circle cx="16" cy="31" r="0.8" fill="#EAB308"/>
  <circle cx="20" cy="31" r="0.8" fill="#EAB308"/>
  
  <defs>
    <linearGradient id="gradient" x1="0" y1="0" x2="40" y2="40" gradientUnits="userSpaceOnUse">
      <stop stop-color="#EAB308"/>
      <stop offset="1" stop-color="#F59E0B"/>
    </linearGradient>
  </defs>
</svg>